<svg width="32" height="32" viewBox="0 0 32 32" fill="none" xmlns="http://www.w3.org/2000/svg">
<path d="M15.3125 23.4428C15.7362 23.1871 16.2667 23.1871 16.6904 23.4428L21.5361 26.3675C22.5459 26.9769 23.7915 26.0716 23.5236 24.9231L22.2376 19.4107C22.1252 18.9287 22.289 18.4241 22.6631 18.1001L26.9509 14.3855C27.8417 13.6138 27.3666 12.1506 26.1924 12.0494L20.5474 11.5626C20.0556 11.5202 19.6275 11.2095 19.4346 10.7552L17.2288 5.55846C16.769 4.47531 15.2339 4.47531 14.7741 5.55846L12.5683 10.7552C12.3754 11.2095 11.9473 11.5202 11.4555 11.5626L5.80657 12.0497C4.63293 12.1509 4.15751 13.613 5.04717 14.3851L9.32855 18.1008C9.70152 18.4245 9.86503 18.9279 9.75348 19.409L8.47385 24.9279C8.20765 26.076 9.45269 26.9796 10.4617 26.3706L15.3125 23.4428Z" fill="#7149C6"/>
</svg>
