<svg width="32" height="32" viewBox="0 0 32 32" fill="none" xmlns="http://www.w3.org/2000/svg">
<path fill-rule="evenodd" clip-rule="evenodd" d="M16 4.74609C15.5018 4.74662 15.0038 5.01741 14.7741 5.55846L12.5683 10.7552C12.3754 11.2095 11.9473 11.5202 11.4555 11.5626L5.80657 12.0497C4.63293 12.1509 4.15751 13.613 5.04717 14.3851L9.32855 18.1008C9.70152 18.4245 9.86503 18.9279 9.75348 19.409L8.47385 24.9279C8.20764 26.076 9.45269 26.9796 10.4617 26.3706L15.3125 23.4428C15.5239 23.3152 15.7619 23.2513 16 23.251V4.74609Z" fill="#7149C6"/>
<path fill-rule="evenodd" clip-rule="evenodd" d="M16 4.74609C16.4982 4.74662 16.9962 5.01741 17.2259 5.55846L19.4317 10.7552C19.6246 11.2095 20.0527 11.5202 20.5445 11.5626L26.1934 12.0497C27.3671 12.1509 27.8425 13.613 26.9528 14.3851L22.6715 18.1008C22.2985 18.4245 22.135 18.9279 22.2465 19.409L23.5262 24.9279C23.7924 26.076 22.5473 26.9796 21.5383 26.3706L16.6875 23.4428C16.4761 23.3152 16.2381 23.2513 16 23.251V4.74609Z" fill="#CBCBCB"/>
</svg>
