<svg width="32" height="32" viewBox="0 0 32 32" fill="none" xmlns="http://www.w3.org/2000/svg">
<path d="M16.6875 23.4428C16.2638 23.1871 15.7333 23.1871 15.3096 23.4428L10.4639 26.3675C9.45412 26.9769 8.20848 26.0716 8.47643 24.9231L9.76237 19.4107C9.87482 18.9287 9.71102 18.4241 9.33694 18.1001L5.04914 14.3855C4.15834 13.6138 4.6334 12.1506 5.80762 12.0494L11.4526 11.5626C11.9444 11.5202 12.3725 11.2095 12.5654 10.7552L14.7712 5.55846C15.231 4.47531 16.7661 4.47531 17.2259 5.55846L19.4317 10.7552C19.6246 11.2095 20.0527 11.5202 20.5445 11.5626L26.1934 12.0497C27.3671 12.1509 27.8425 13.613 26.9528 14.3851L22.6715 18.1008C22.2985 18.4245 22.135 18.9279 22.2465 19.409L23.5262 24.9279C23.7924 26.076 22.5473 26.9796 21.5383 26.3706L16.6875 23.4428Z" fill="#CBCBCB"/>
</svg>
